<svg width="32" height="32" viewBox="0 0 32 32" fill="none" xmlns="http://www.w3.org/2000/svg">
<path d="M14.292 15.021V19.396" stroke="#FB2C36" stroke-width="1.45833" stroke-linecap="round" stroke-linejoin="round"/>
<path d="M17.208 15.021V19.396" stroke="#FB2C36" stroke-width="1.45833" stroke-linecap="round" stroke-linejoin="round"/>
<path d="M20.8538 11.375V21.5833C20.8538 21.9701 20.7002 22.341 20.4267 22.6145C20.1532 22.888 19.7823 23.0417 19.3955 23.0417H12.1038C11.7171 23.0417 11.3461 22.888 11.0726 22.6145C10.7992 22.341 10.6455 21.9701 10.6455 21.5833V11.375" stroke="#FB2C36" stroke-width="1.45833" stroke-linecap="round" stroke-linejoin="round"/>
<path d="M9.1875 11.375H22.3125" stroke="#FB2C36" stroke-width="1.45833" stroke-linecap="round" stroke-linejoin="round"/>
<path d="M12.833 11.3752V9.91683C12.833 9.53006 12.9867 9.15912 13.2601 8.88563C13.5336 8.61214 13.9046 8.4585 14.2913 8.4585H17.208C17.5948 8.4585 17.9657 8.61214 18.2392 8.88563C18.5127 9.15912 18.6663 9.53006 18.6663 9.91683V11.3752" stroke="#FB2C36" stroke-width="1.45833" stroke-linecap="round" stroke-linejoin="round"/>
</svg>
