<svg width="35" height="35" viewBox="0 0 35 35" fill="none" xmlns="http://www.w3.org/2000/svg">
<path d="M3.00717 18.0074C2.88563 17.68 2.88563 17.3198 3.00717 16.9924C4.1909 14.1222 6.20021 11.6681 8.78038 9.94123C11.3605 8.21435 14.3954 7.29248 17.5001 7.29248C20.6048 7.29248 23.6396 8.21435 26.2198 9.94123C28.8 11.6681 30.8093 14.1222 31.993 16.9924C32.1145 17.3198 32.1145 17.68 31.993 18.0074C30.8093 20.8776 28.8 23.3317 26.2198 25.0586C23.6396 26.7855 20.6048 27.7073 17.5001 27.7073C14.3954 27.7073 11.3605 26.7855 8.78038 25.0586C6.20021 23.3317 4.1909 20.8776 3.00717 18.0074Z" stroke="#0A0A0A" stroke-width="1.45833" stroke-linecap="round" stroke-linejoin="round"/>
<path d="M17.5 21.875C19.9162 21.875 21.875 19.9162 21.875 17.5C21.875 15.0838 19.9162 13.125 17.5 13.125C15.0838 13.125 13.125 15.0838 13.125 17.5C13.125 19.9162 15.0838 21.875 17.5 21.875Z" stroke="#0A0A0A" stroke-width="1.45833" stroke-linecap="round" stroke-linejoin="round"/>
</svg>
