<svg width="56" height="56" viewBox="0 0 56 56" fill="none" xmlns="http://www.w3.org/2000/svg">
<path d="M0 12C0 5.37258 5.37258 0 12 0H43.5C50.1274 0 55.5 5.37258 55.5 12V43.5C55.5 50.1274 50.1274 55.5 43.5 55.5H12C5.37258 55.5 0 50.1274 0 43.5V12Z" fill="#16161A"/>
<mask id="path-2-inside-1_694_3412" fill="white">
<path d="M0 12C0 5.37258 5.37258 0 12 0H43.5C50.1274 0 55.5 5.37258 55.5 12V43.5C55.5 50.1274 50.1274 55.5 43.5 55.5H12C5.37258 55.5 0 50.1274 0 43.5V12Z"/>
</mask>
<path d="M12 0V4H43.5V0V-4H12V0ZM55.5 12H51.5V43.5H55.5H59.5V12H55.5ZM43.5 55.5V51.5H12V55.5V59.5H43.5V55.5ZM0 43.5H4V12H0H-4V43.5H0ZM12 55.5V51.5C7.58172 51.5 4 47.9183 4 43.5H0H-4C-4 52.3366 3.16344 59.5 12 59.5V55.5ZM55.5 43.5H51.5C51.5 47.9183 47.9183 51.5 43.5 51.5V55.5V59.5C52.3366 59.5 59.5 52.3366 59.5 43.5H55.5ZM43.5 0V4C47.9183 4 51.5 7.58172 51.5 12H55.5H59.5C59.5 3.16344 52.3366 -4 43.5 -4V0ZM12 0V-4C3.16344 -4 -4 3.16344 -4 12H0H4C4 7.58172 7.58172 4 12 4V0Z" fill="#16161A" mask="url(#path-2-inside-1_694_3412)"/>
<g clip-path="url(#clip0_694_3412)">
<path d="M20.8384 20.9357C20.8383 20.5911 20.9259 20.2525 21.0923 19.9543C21.2587 19.656 21.4981 19.4085 21.7863 19.2368C22.0744 19.0652 22.4012 18.9754 22.7335 18.9766C23.0658 18.9777 23.392 19.0698 23.679 19.2435L35.0083 26.0965C35.2943 26.2685 35.5316 26.5153 35.6968 26.8123C35.8618 27.1093 35.9489 27.446 35.9492 27.7888C35.9495 28.1316 35.8629 28.4684 35.6984 28.7657C35.5337 29.0629 35.2968 29.3102 35.0112 29.4828L23.679 36.3377C23.392 36.5114 23.0658 36.6035 22.7335 36.6046C22.4012 36.6058 22.0744 36.516 21.7863 36.3443C21.4981 36.1727 21.2587 35.9252 21.0923 35.6269C20.9259 35.3286 20.8383 34.9901 20.8384 34.6455V20.9357Z" fill="white" stroke="white" stroke-width="2.47282" stroke-linecap="round" stroke-linejoin="round"/>
</g>
<defs>
<clipPath id="clip0_694_3412">
<rect width="18.6172" height="20.9844" fill="white" transform="translate(19.4219 17.5078)"/>
</clipPath>
</defs>
</svg>
