<svg width="21" height="21" viewBox="0 0 21 21" fill="none" xmlns="http://www.w3.org/2000/svg">
<path d="M9.43249 4.03189C9.43232 3.91245 9.39671 3.79574 9.33026 3.69648C9.2639 3.59722 9.16949 3.51988 9.05919 3.47419C8.94882 3.42851 8.82735 3.41654 8.71026 3.43979C8.59308 3.46304 8.48547 3.52048 8.40089 3.60485L5.49911 6.50577C5.38713 6.61843 5.25389 6.70774 5.10714 6.76853C4.96039 6.82932 4.80303 6.86039 4.64418 6.85993H2.57246C2.34504 6.85993 2.12694 6.95027 1.96612 7.11108C1.80531 7.27189 1.71497 7.49 1.71497 7.71742V12.8624C1.71497 13.0899 1.80531 13.3079 1.96612 13.4688C2.12694 13.6296 2.34504 13.72 2.57246 13.72H4.64418C4.80303 13.7194 4.96039 13.7505 5.10714 13.8113C5.25389 13.8721 5.38713 13.9615 5.49911 14.0741L8.40005 16.9759C8.48455 17.0605 8.59241 17.1183 8.70976 17.1417C8.8271 17.165 8.94882 17.1531 9.05936 17.1073C9.16999 17.0615 9.26441 16.9839 9.33085 16.8842C9.39729 16.7847 9.43266 16.6677 9.43249 16.548V4.03189Z" stroke="#16161A" stroke-width="2.184" stroke-linecap="round" stroke-linejoin="round"/>
<path d="M13.72 7.71729C14.2766 8.45943 14.5775 9.36209 14.5775 10.2898C14.5775 11.2175 14.2766 12.1201 13.72 12.8623" stroke="#16161A" stroke-width="2.184" stroke-linecap="round" stroke-linejoin="round"/>
<path d="M16.6046 15.7473C17.3213 15.0306 17.8897 14.1799 18.2776 13.2435C18.6655 12.3072 18.8651 11.3036 18.8651 10.2902C18.8651 9.27669 18.6655 8.27309 18.2776 7.33676C17.8897 6.40042 17.3213 5.54965 16.6046 4.83301" stroke="#16161A" stroke-width="2.184" stroke-linecap="round" stroke-linejoin="round"/>
</svg>
