<svg width="24" height="24" viewBox="0 0 24 24" fill="none" xmlns="http://www.w3.org/2000/svg">
<path d="M3.42871 12.0001C3.42871 13.6954 3.93142 15.3526 4.87326 16.7622C5.8151 18.1717 7.15377 19.2704 8.71999 19.9191C10.2862 20.5679 12.0096 20.7376 13.6723 20.4069C15.335 20.0761 16.8623 19.2598 18.061 18.061C19.2598 16.8623 20.0761 15.335 20.4069 13.6723C20.7376 12.0096 20.5679 10.2862 19.9191 8.71999C19.2704 7.15377 18.1717 5.8151 16.7622 4.87326C15.3526 3.93142 13.6954 3.42871 12.0001 3.42871C9.6039 3.43773 7.30392 4.37273 5.58109 6.03823L3.42871 8.19061" stroke="#99A1AF" stroke-width="1.45833" stroke-linecap="round" stroke-linejoin="round"/>
<path d="M3 3V8H8" stroke="#99A1AF" stroke-width="1.45833" stroke-linecap="round" stroke-linejoin="round"/>
</svg>
