<svg width="48" height="48" viewBox="0 0 48 48" fill="none" xmlns="http://www.w3.org/2000/svg">
<g clip-path="url(#clip0_694_3404)">
<path d="M29.0594 16.7084C29.3274 16.5541 29.6333 16.4707 29.9458 16.4669C30.2583 16.4631 30.5663 16.539 30.8383 16.6869C31.1102 16.8347 31.3364 17.0492 31.4938 17.3084C31.6513 17.5676 31.7341 17.8623 31.7341 18.1624V28.3356C31.7341 28.6356 31.6513 28.9304 31.4938 29.1896C31.3364 29.4487 31.1102 29.6633 30.8383 29.8111C30.5663 29.9589 30.2583 30.0348 29.9458 30.0311C29.6333 30.0273 29.3274 29.944 29.0594 29.7896L20.2317 24.7046C19.9697 24.5543 19.7527 24.3414 19.6019 24.0865C19.4511 23.8316 19.3717 23.5436 19.3715 23.2506C19.3712 22.9575 19.4501 22.6693 19.6004 22.4142C19.7507 22.1591 19.9673 21.9458 20.2291 21.7951L29.0594 16.7084Z" stroke="#16161A" stroke-width="2.20368" stroke-linecap="round" stroke-linejoin="round"/>
</g>
<g clip-path="url(#clip1_694_3404)">
<path d="M15.3929 30.0312V16.4668" stroke="#16161A" stroke-width="2.06791" stroke-linecap="round" stroke-linejoin="round"/>
</g>
<defs>
<clipPath id="clip0_694_3404">
<rect width="15.5703" height="16.6094" fill="white" transform="translate(18.0469 15.1953)"/>
</clipPath>
<clipPath id="clip1_694_3404">
<rect width="3.04688" height="16.6094" fill="white" transform="translate(14.2266 15.1953)"/>
</clipPath>
</defs>
</svg>
