<svg width="35" height="35" viewBox="0 0 35 35" fill="none" xmlns="http://www.w3.org/2000/svg">
<path fill-rule="evenodd" clip-rule="evenodd" d="M26.2501 6.28403L11.6667 9.47924V28.0001C11.6667 29.3665 10.7524 30.698 9.52298 31.2711C9.29402 31.3776 7.84881 31.7013 7.66068 31.7378C5.84798 32.1024 4.45527 30.5507 4.37943 28.9815C4.3036 27.4124 5.33173 26.1028 6.5261 25.8622L8.37089 25.3999C9.02277 25.2365 9.47923 24.6503 9.47923 23.978V8.69174C9.4795 8.35939 9.59329 8.03711 9.80175 7.77826C10.0102 7.51941 10.3008 7.33953 10.6255 7.26841L27.5524 3.56133C27.6588 3.53801 27.7691 3.53884 27.8752 3.56376C27.9812 3.58868 28.0804 3.63705 28.1653 3.70531C28.2502 3.77358 28.3187 3.86001 28.3658 3.95825C28.413 4.05649 28.4375 4.16404 28.4376 4.27299V24.1209C28.4376 25.4874 27.5144 26.8188 26.2749 27.392C26.0444 27.4984 24.5861 27.8222 24.3965 27.8586C22.5692 28.2232 21.1634 26.6715 21.0861 25.1024C21.0088 23.5332 22.0486 22.2236 23.2517 21.983L25.1359 21.5163C25.7907 21.3559 26.2501 20.7682 26.2501 20.0945V6.28403Z" fill="black"/>
</svg>
