<svg width="48" height="48" viewBox="0 0 48 48" fill="none" xmlns="http://www.w3.org/2000/svg">
<g clip-path="url(#clip0_694_3421)">
<path d="M31.8929 16.4668V30.0312" stroke="#16161A" stroke-width="2.06791" stroke-linecap="round" stroke-linejoin="round"/>
</g>
<path d="M18.3821 16.7084C18.1141 16.5541 17.8083 16.4707 17.4958 16.4669C17.1832 16.4631 16.8753 16.539 16.6033 16.6869C16.3314 16.8347 16.1051 17.0492 15.9477 17.3084C15.7903 17.5676 15.7074 17.8623 15.7074 18.1624V28.3356C15.7074 28.6356 15.7903 28.9304 15.9477 29.1896C16.1051 29.4487 16.3314 29.6633 16.6033 29.8111C16.8753 29.9589 17.1832 30.0348 17.4958 30.0311C17.8083 30.0273 18.1141 29.944 18.3821 29.7896L27.2098 24.7046C27.4719 24.5543 27.6889 24.3414 27.8396 24.0865C27.9904 23.8316 28.0698 23.5436 28.0701 23.2506C28.0703 22.9575 27.9915 22.6693 27.8412 22.4142C27.6909 22.1591 27.4743 21.9458 27.2125 21.7951L18.3821 16.7084Z" stroke="#16161A" stroke-width="2.20368" stroke-linecap="round" stroke-linejoin="round"/>
<defs>
<clipPath id="clip0_694_3421">
<rect width="3.04688" height="16.6094" fill="white" transform="translate(30.7266 15.1953)"/>
</clipPath>
</defs>
</svg>
