<svg width="32" height="32" viewBox="0 0 32 32" fill="none" xmlns="http://www.w3.org/2000/svg">
<path d="M10.6455 10.6458C10.6454 10.3892 10.7131 10.1371 10.8416 9.915C10.9701 9.6929 11.1549 9.50863 11.3774 9.38082C11.5999 9.253 11.8522 9.18615 12.1088 9.18702C12.3654 9.18789 12.6172 9.25645 12.8388 9.38578L21.5867 14.4885C21.8074 14.6166 21.9907 14.8004 22.1182 15.0215C22.2456 15.2426 22.3129 15.4933 22.3131 15.7486C22.3133 16.0038 22.2465 16.2547 22.1194 16.476C21.9923 16.6973 21.8094 16.8815 21.5888 17.0099L12.8388 22.1141C12.6172 22.2434 12.3654 22.312 12.1088 22.3129C11.8522 22.3137 11.5999 22.2469 11.3774 22.1191C11.1549 21.9913 10.9701 21.807 10.8416 21.5849C10.7131 21.3628 10.6454 21.1107 10.6455 20.8541V10.6458Z" stroke="#0A0A0A" stroke-width="1.45833" stroke-linecap="round" stroke-linejoin="round"/>
</svg>
